{
	"patcher" : 	{
		"fileversion" : 1,
		"appversion" : 		{
			"major" : 7,
			"minor" : 1,
			"revision" : 0,
			"architecture" : "x64",
			"modernui" : 1
		}
,
		"rect" : [ 292.0, 85.0, 1489.0, 969.0 ],
		"bglocked" : 0,
		"openinpresentation" : 0,
		"default_fontsize" : 12.0,
		"default_fontface" : 0,
		"default_fontname" : "Arial",
		"gridonopen" : 1,
		"gridsize" : [ 15.0, 15.0 ],
		"gridsnaponopen" : 1,
		"objectsnaponopen" : 1,
		"statusbarvisible" : 2,
		"toolbarvisible" : 1,
		"lefttoolbarpinned" : 0,
		"toptoolbarpinned" : 0,
		"righttoolbarpinned" : 0,
		"bottomtoolbarpinned" : 0,
		"toolbars_unpinned_last_save" : 0,
		"tallnewobj" : 0,
		"boxanimatetime" : 200,
		"enablehscroll" : 1,
		"enablevscroll" : 1,
		"devicewidth" : 0.0,
		"description" : "",
		"digest" : "",
		"tags" : "",
		"style" : "",
		"subpatcher_template" : "",
		"boxes" : [ 			{
				"box" : 				{
					"id" : "obj-58",
					"maxclass" : "newobj",
					"numinlets" : 2,
					"numoutlets" : 2,
					"outlettype" : [ "int", "int" ],
					"patching_rect" : [ 819.0, -178.0, 57.0, 22.0 ],
					"style" : "",
					"text" : "stripnote"
				}

			}
, 			{
				"box" : 				{
					"id" : "obj-57",
					"maxclass" : "newobj",
					"numinlets" : 0,
					"numoutlets" : 1,
					"outlettype" : [ "" ],
					"patching_rect" : [ 483.0, -17.0, 52.0, 22.0 ],
					"style" : "",
					"text" : "r drum4"
				}

			}
, 			{
				"box" : 				{
					"id" : "obj-56",
					"maxclass" : "newobj",
					"numinlets" : 0,
					"numoutlets" : 1,
					"outlettype" : [ "" ],
					"patching_rect" : [ 412.0, -17.0, 52.0, 22.0 ],
					"style" : "",
					"text" : "r drum3"
				}

			}
, 			{
				"box" : 				{
					"id" : "obj-54",
					"maxclass" : "newobj",
					"numinlets" : 0,
					"numoutlets" : 1,
					"outlettype" : [ "" ],
					"patching_rect" : [ 565.0, -18.0, 52.0, 22.0 ],
					"style" : "",
					"text" : "r drum2"
				}

			}
, 			{
				"box" : 				{
					"id" : "obj-53",
					"maxclass" : "newobj",
					"numinlets" : 1,
					"numoutlets" : 0,
					"patching_rect" : [ 969.0, -11.0, 54.0, 22.0 ],
					"style" : "",
					"text" : "s drum4"
				}

			}
, 			{
				"box" : 				{
					"id" : "obj-52",
					"maxclass" : "newobj",
					"numinlets" : 1,
					"numoutlets" : 0,
					"patching_rect" : [ 880.5, -11.0, 54.0, 22.0 ],
					"style" : "",
					"text" : "s drum3"
				}

			}
, 			{
				"box" : 				{
					"id" : "obj-51",
					"maxclass" : "newobj",
					"numinlets" : 1,
					"numoutlets" : 0,
					"patching_rect" : [ 801.0, -11.0, 54.0, 22.0 ],
					"style" : "",
					"text" : "s drum2"
				}

			}
, 			{
				"box" : 				{
					"id" : "obj-50",
					"maxclass" : "newobj",
					"numinlets" : 1,
					"numoutlets" : 1,
					"outlettype" : [ "bang" ],
					"patching_rect" : [ 969.0, -44.0, 24.0, 22.0 ],
					"style" : "",
					"text" : "t b"
				}

			}
, 			{
				"box" : 				{
					"id" : "obj-49",
					"maxclass" : "newobj",
					"numinlets" : 1,
					"numoutlets" : 1,
					"outlettype" : [ "bang" ],
					"patching_rect" : [ 880.5, -44.0, 24.0, 22.0 ],
					"style" : "",
					"text" : "t b"
				}

			}
, 			{
				"box" : 				{
					"id" : "obj-48",
					"maxclass" : "newobj",
					"numinlets" : 1,
					"numoutlets" : 1,
					"outlettype" : [ "bang" ],
					"patching_rect" : [ 801.0, -48.0, 24.0, 22.0 ],
					"style" : "",
					"text" : "t b"
				}

			}
, 			{
				"box" : 				{
					"id" : "obj-47",
					"maxclass" : "newobj",
					"numinlets" : 1,
					"numoutlets" : 1,
					"outlettype" : [ "bang" ],
					"patching_rect" : [ 697.0, -34.0, 24.0, 22.0 ],
					"style" : "",
					"text" : "t b"
				}

			}
, 			{
				"box" : 				{
					"id" : "obj-46",
					"maxclass" : "newobj",
					"numinlets" : 1,
					"numoutlets" : 2,
					"outlettype" : [ "int", "int" ],
					"patching_rect" : [ 969.0, -82.0, 69.0, 22.0 ],
					"style" : "",
					"text" : "unpack 0 0"
				}

			}
, 			{
				"box" : 				{
					"id" : "obj-45",
					"maxclass" : "newobj",
					"numinlets" : 1,
					"numoutlets" : 2,
					"outlettype" : [ "int", "int" ],
					"patching_rect" : [ 880.5, -82.0, 69.0, 22.0 ],
					"style" : "",
					"text" : "unpack 0 0"
				}

			}
, 			{
				"box" : 				{
					"id" : "obj-44",
					"maxclass" : "newobj",
					"numinlets" : 1,
					"numoutlets" : 2,
					"outlettype" : [ "int", "int" ],
					"patching_rect" : [ 801.0, -82.0, 69.0, 22.0 ],
					"style" : "",
					"text" : "unpack 0 0"
				}

			}
, 			{
				"box" : 				{
					"id" : "obj-43",
					"maxclass" : "newobj",
					"numinlets" : 1,
					"numoutlets" : 2,
					"outlettype" : [ "int", "int" ],
					"patching_rect" : [ 717.0, -82.0, 69.0, 22.0 ],
					"style" : "",
					"text" : "unpack 0 0"
				}

			}
, 			{
				"box" : 				{
					"id" : "obj-42",
					"maxclass" : "newobj",
					"numinlets" : 5,
					"numoutlets" : 5,
					"outlettype" : [ "", "", "", "", "" ],
					"patching_rect" : [ 819.0, -140.0, 130.0, 22.0 ],
					"style" : "",
					"text" : "routepass 36 37 38 39"
				}

			}
, 			{
				"box" : 				{
					"id" : "obj-28",
					"maxclass" : "newobj",
					"numinlets" : 1,
					"numoutlets" : 7,
					"outlettype" : [ "", "", "", "int", "int", "int", "int" ],
					"patching_rect" : [ 819.0, -218.0, 142.0, 22.0 ],
					"style" : "",
					"text" : "midiparse"
				}

			}
, 			{
				"box" : 				{
					"id" : "obj-25",
					"maxclass" : "message",
					"numinlets" : 2,
					"numoutlets" : 1,
					"outlettype" : [ "" ],
					"patching_rect" : [ 819.0, -293.0, 58.0, 22.0 ],
					"style" : "",
					"text" : "Rewire 1"
				}

			}
, 			{
				"box" : 				{
					"id" : "obj-12",
					"maxclass" : "newobj",
					"numinlets" : 1,
					"numoutlets" : 1,
					"outlettype" : [ "int" ],
					"patching_rect" : [ 819.0, -256.0, 42.0, 22.0 ],
					"style" : "",
					"text" : "midiin"
				}

			}
, 			{
				"box" : 				{
					"id" : "obj-9",
					"maxclass" : "message",
					"numinlets" : 2,
					"numoutlets" : 1,
					"outlettype" : [ "" ],
					"patching_rect" : [ 412.0, 17.0, 29.5, 22.0 ],
					"style" : "",
					"text" : "1"
				}

			}
, 			{
				"box" : 				{
					"id" : "obj-8",
					"maxclass" : "message",
					"numinlets" : 2,
					"numoutlets" : 1,
					"outlettype" : [ "" ],
					"patching_rect" : [ 697.0, 6.0, 29.5, 22.0 ],
					"style" : "",
					"text" : "1"
				}

			}
, 			{
				"box" : 				{
					"id" : "obj-2",
					"maxclass" : "message",
					"numinlets" : 2,
					"numoutlets" : 1,
					"outlettype" : [ "" ],
					"patching_rect" : [ 565.0, 21.0, 29.5, 22.0 ],
					"style" : "",
					"text" : "1"
				}

			}
, 			{
				"box" : 				{
					"autosave" : 1,
					"bgmode" : 1,
					"border" : 0,
					"clickthrough" : 0,
					"enablehscroll" : 0,
					"enablevscroll" : 0,
					"id" : "obj-5",
					"lockeddragscroll" : 0,
					"maxclass" : "newobj",
					"numinlets" : 3,
					"numoutlets" : 4,
					"offset" : [ 0.0, 0.0 ],
					"outlettype" : [ "signal", "signal", "", "" ],
					"patching_rect" : [ 315.0, 686.0, 437.0, 196.0 ],
					"presentation_rect" : [ 0.0, 0.0, 437.0, 196.0 ],
					"saved_attribute_attributes" : 					{
						"valueof" : 						{
							"parameter_invisible" : 1,
							"parameter_longname" : "amxd~",
							"parameter_shortname" : "amxd~",
							"parameter_type" : 3
						}

					}
,
					"saved_object_attributes" : 					{
						"annotation_name" : "",
						"parameter_enable" : 1,
						"patchername" : "Chorus x2.amxd",
						"patchername_fallback" : "C74:/packages/Max for Live/patchers/Max Audio Effect/Chorus x2/Chorus x2.amxd"
					}
,
					"snapshot" : 					{
						"filetype" : "C74Snapshot",
						"version" : 2,
						"minorversion" : 0,
						"name" : "snapshotlist",
						"origin" : "max~",
						"type" : "list",
						"subtype" : "Undefined",
						"embed" : 1,
						"snapshot" : 						{
							"name" : "Chorus x2.amxd",
							"origname" : "C74:/packages/Max for Live/patchers/Max Audio Effect/Chorus x2/Chorus x2.amxd",
							"valuedictionary" : 							{
								"parameter_values" : 								{
									"delay_H" : 43.307087,
									"delay_L" : 433.448822,
									"depth_H" : 10.0,
									"depth_L" : 10.0,
									"fdback_H" : -99.0,
									"fdback_L" : 82.952759,
									"gain_H" : 85.039368,
									"gain_L" : 92.519684,
									"hi_polarity" : 1.0,
									"lo_polarity" : 1.0,
									"mod_L" : 0.0,
									"mod_rate" : 0.0,
									"osc_H" : 0.124721,
									"osc_L" : 1.0,
									"wet/dry" : 1.574803,
									"x-over" : 946.456665
								}

							}

						}
,
						"snapshotlist" : 						{
							"current_snapshot" : 0,
							"entries" : [ 								{
									"filetype" : "C74Snapshot",
									"version" : 2,
									"minorversion" : 0,
									"name" : "Chorus x2.amxd",
									"origin" : "Chorus x2.amxd",
									"type" : "amxd",
									"subtype" : "Undefined",
									"embed" : 0,
									"snapshot" : 									{
										"name" : "Chorus x2.amxd",
										"origname" : "C74:/packages/Max for Live/patchers/Max Audio Effect/Chorus x2/Chorus x2.amxd",
										"valuedictionary" : 										{
											"parameter_values" : 											{
												"delay_H" : 43.307087,
												"delay_L" : 433.448822,
												"depth_H" : 10.0,
												"depth_L" : 10.0,
												"fdback_H" : -99.0,
												"fdback_L" : 82.952759,
												"gain_H" : 85.039368,
												"gain_L" : 92.519684,
												"hi_polarity" : 1.0,
												"lo_polarity" : 1.0,
												"mod_L" : 0.0,
												"mod_rate" : 0.0,
												"osc_H" : 0.124721,
												"osc_L" : 1.0,
												"wet/dry" : 1.574803,
												"x-over" : 946.456665
											}

										}

									}
,
									"fileref" : 									{
										"name" : "Chorus x2.amxd",
										"filename" : "Chorus x2.amxd.maxsnap",
										"filepath" : "~/Max 7/Snapshots",
										"filepos" : -1,
										"snapshotfileid" : "2126f7742f43ef561564666de4b23e3a"
									}

								}
 ]
						}

					}
,
					"style" : "",
					"text" : "amxd~ \"Chorus x2.amxd\"",
					"varname" : "amxd~",
					"viewvisibility" : 1
				}

			}
, 			{
				"box" : 				{
					"id" : "obj-3",
					"maxclass" : "message",
					"numinlets" : 2,
					"numoutlets" : 1,
					"outlettype" : [ "" ],
					"patching_rect" : [ 483.0, 17.0, 29.5, 22.0 ],
					"style" : "",
					"text" : "1"
				}

			}
, 			{
				"box" : 				{
					"bgmode" : 0,
					"border" : 0,
					"clickthrough" : 0,
					"enablehscroll" : 0,
					"enablevscroll" : 0,
					"id" : "obj-4",
					"lockeddragscroll" : 0,
					"maxclass" : "bpatcher",
					"name" : "subpatcher1.maxpat",
					"numinlets" : 4,
					"numoutlets" : 8,
					"offset" : [ 0.0, 0.0 ],
					"outlettype" : [ "signal", "signal", "signal", "signal", "signal", "signal", "signal", "signal" ],
					"patching_rect" : [ 338.333344, 100.5, 1177.0, 549.599976 ],
					"presentation" : 1,
					"presentation_rect" : [ 780.0, 330.0, 390.0, 287.599976 ],
					"viewvisibility" : 1
				}

			}
, 			{
				"box" : 				{
					"id" : "obj-30",
					"maxclass" : "live.gain~",
					"numinlets" : 2,
					"numoutlets" : 5,
					"outlettype" : [ "signal", "signal", "", "float", "list" ],
					"parameter_enable" : 1,
					"patching_rect" : [ 353.0, 909.0, 50.0, 134.0 ],
					"presentation" : 1,
					"presentation_rect" : [ 1215.0, 270.0, 50.0, 134.0 ],
					"saved_attribute_attributes" : 					{
						"valueof" : 						{
							"parameter_longname" : "live.gain~",
							"parameter_shortname" : "live.gain~",
							"parameter_type" : 0,
							"parameter_mmin" : -70.0,
							"parameter_mmax" : 6.0,
							"parameter_initial_enable" : 1,
							"parameter_initial" : [ -70 ],
							"parameter_unitstyle" : 4
						}

					}
,
					"varname" : "live.gain~"
				}

			}
, 			{
				"box" : 				{
					"id" : "obj-1",
					"maxclass" : "ezdac~",
					"numinlets" : 2,
					"numoutlets" : 0,
					"patching_rect" : [ 353.0, 1061.0, 45.0, 45.0 ],
					"presentation" : 1,
					"presentation_rect" : [ 1215.0, 420.0, 45.0, 45.0 ],
					"style" : ""
				}

			}
 ],
		"lines" : [ 			{
				"patchline" : 				{
					"destination" : [ "obj-28", 0 ],
					"disabled" : 0,
					"hidden" : 0,
					"source" : [ "obj-12", 0 ]
				}

			}
, 			{
				"patchline" : 				{
					"destination" : [ "obj-4", 3 ],
					"disabled" : 0,
					"hidden" : 0,
					"source" : [ "obj-2", 0 ]
				}

			}
, 			{
				"patchline" : 				{
					"destination" : [ "obj-12", 0 ],
					"disabled" : 0,
					"hidden" : 0,
					"source" : [ "obj-25", 0 ]
				}

			}
, 			{
				"patchline" : 				{
					"destination" : [ "obj-58", 0 ],
					"disabled" : 0,
					"hidden" : 0,
					"source" : [ "obj-28", 0 ]
				}

			}
, 			{
				"patchline" : 				{
					"destination" : [ "obj-4", 2 ],
					"disabled" : 0,
					"hidden" : 0,
					"source" : [ "obj-3", 0 ]
				}

			}
, 			{
				"patchline" : 				{
					"destination" : [ "obj-1", 1 ],
					"disabled" : 0,
					"hidden" : 0,
					"source" : [ "obj-30", 1 ]
				}

			}
, 			{
				"patchline" : 				{
					"destination" : [ "obj-1", 0 ],
					"disabled" : 0,
					"hidden" : 0,
					"source" : [ "obj-30", 0 ]
				}

			}
, 			{
				"patchline" : 				{
					"destination" : [ "obj-5", 1 ],
					"disabled" : 0,
					"hidden" : 0,
					"source" : [ "obj-4", 1 ]
				}

			}
, 			{
				"patchline" : 				{
					"destination" : [ "obj-5", 0 ],
					"disabled" : 0,
					"hidden" : 0,
					"source" : [ "obj-4", 0 ]
				}

			}
, 			{
				"patchline" : 				{
					"destination" : [ "obj-43", 0 ],
					"disabled" : 0,
					"hidden" : 0,
					"source" : [ "obj-42", 0 ]
				}

			}
, 			{
				"patchline" : 				{
					"destination" : [ "obj-44", 0 ],
					"disabled" : 0,
					"hidden" : 0,
					"source" : [ "obj-42", 1 ]
				}

			}
, 			{
				"patchline" : 				{
					"destination" : [ "obj-45", 0 ],
					"disabled" : 0,
					"hidden" : 0,
					"source" : [ "obj-42", 2 ]
				}

			}
, 			{
				"patchline" : 				{
					"destination" : [ "obj-46", 0 ],
					"disabled" : 0,
					"hidden" : 0,
					"source" : [ "obj-42", 3 ]
				}

			}
, 			{
				"patchline" : 				{
					"destination" : [ "obj-47", 0 ],
					"disabled" : 0,
					"hidden" : 0,
					"source" : [ "obj-43", 0 ]
				}

			}
, 			{
				"patchline" : 				{
					"destination" : [ "obj-48", 0 ],
					"disabled" : 0,
					"hidden" : 0,
					"source" : [ "obj-44", 0 ]
				}

			}
, 			{
				"patchline" : 				{
					"destination" : [ "obj-49", 0 ],
					"disabled" : 0,
					"hidden" : 0,
					"source" : [ "obj-45", 0 ]
				}

			}
, 			{
				"patchline" : 				{
					"destination" : [ "obj-50", 0 ],
					"disabled" : 0,
					"hidden" : 0,
					"source" : [ "obj-46", 0 ]
				}

			}
, 			{
				"patchline" : 				{
					"destination" : [ "obj-8", 0 ],
					"disabled" : 0,
					"hidden" : 0,
					"source" : [ "obj-47", 0 ]
				}

			}
, 			{
				"patchline" : 				{
					"destination" : [ "obj-51", 0 ],
					"disabled" : 0,
					"hidden" : 0,
					"source" : [ "obj-48", 0 ]
				}

			}
, 			{
				"patchline" : 				{
					"destination" : [ "obj-52", 0 ],
					"disabled" : 0,
					"hidden" : 0,
					"source" : [ "obj-49", 0 ]
				}

			}
, 			{
				"patchline" : 				{
					"destination" : [ "obj-30", 1 ],
					"disabled" : 0,
					"hidden" : 0,
					"source" : [ "obj-5", 1 ]
				}

			}
, 			{
				"patchline" : 				{
					"destination" : [ "obj-30", 0 ],
					"disabled" : 0,
					"hidden" : 0,
					"source" : [ "obj-5", 0 ]
				}

			}
, 			{
				"patchline" : 				{
					"destination" : [ "obj-53", 0 ],
					"disabled" : 0,
					"hidden" : 0,
					"source" : [ "obj-50", 0 ]
				}

			}
, 			{
				"patchline" : 				{
					"destination" : [ "obj-2", 0 ],
					"disabled" : 0,
					"hidden" : 0,
					"source" : [ "obj-54", 0 ]
				}

			}
, 			{
				"patchline" : 				{
					"destination" : [ "obj-9", 0 ],
					"disabled" : 0,
					"hidden" : 0,
					"source" : [ "obj-56", 0 ]
				}

			}
, 			{
				"patchline" : 				{
					"destination" : [ "obj-3", 0 ],
					"disabled" : 0,
					"hidden" : 0,
					"source" : [ "obj-57", 0 ]
				}

			}
, 			{
				"patchline" : 				{
					"destination" : [ "obj-42", 0 ],
					"disabled" : 0,
					"hidden" : 0,
					"source" : [ "obj-58", 0 ]
				}

			}
, 			{
				"patchline" : 				{
					"destination" : [ "obj-4", 0 ],
					"disabled" : 0,
					"hidden" : 0,
					"source" : [ "obj-8", 0 ]
				}

			}
, 			{
				"patchline" : 				{
					"destination" : [ "obj-4", 1 ],
					"disabled" : 0,
					"hidden" : 0,
					"source" : [ "obj-9", 0 ]
				}

			}
 ],
		"parameters" : 		{
			"obj-4::obj-141" : [ "Glide[3]", "Glide", 0 ],
			"obj-4::obj-57" : [ "Quality[1]", "Quality", 0 ],
			"obj-4::obj-74" : [ "Quality", "Quality", 0 ],
			"obj-4::obj-90" : [ "live.gain~[2]", "live.gain~", 0 ],
			"obj-4::obj-146" : [ "Quality[3]", "Quality", 0 ],
			"obj-4::obj-71" : [ "Transp", "Transp", 0 ],
			"obj-30" : [ "live.gain~", "live.gain~", 0 ],
			"obj-4::obj-52" : [ "Transp[1]", "Transp", 0 ],
			"obj-4::obj-101" : [ "Transp[2]", "Transp", 0 ],
			"obj-4::obj-39" : [ "live.gain~[4]", "live.gain~", 0 ],
			"obj-4::obj-27" : [ "Glide", "Glide", 0 ],
			"obj-5" : [ "amxd~", "amxd~", 0 ],
			"obj-4::obj-100" : [ "Glide[2]", "Glide", 0 ],
			"obj-4::obj-24" : [ "live.gain~[1]", "live.gain~", 0 ],
			"obj-4::obj-142" : [ "Transp[3]", "Transp", 0 ],
			"obj-4::obj-105" : [ "Quality[2]", "Quality", 0 ],
			"obj-4::obj-49" : [ "Glide[1]", "Glide", 0 ],
			"obj-4::obj-131" : [ "live.gain~[3]", "live.gain~", 0 ]
		}
,
		"dependency_cache" : [ 			{
				"name" : "subpatcher1.maxpat",
				"bootpath" : "D:/max-msp-projects/drum-machine-2/subpatchers",
				"type" : "JSON",
				"implicit" : 1
			}
, 			{
				"name" : "pan2.maxpat",
				"bootpath" : "C:/ProgramData/Max 7/examples/spatialization/panning/lib",
				"type" : "JSON",
				"implicit" : 1
			}
, 			{
				"name" : "gizmo_loadme.maxpat",
				"bootpath" : "C74:/help/msp",
				"type" : "JSON",
				"implicit" : 1
			}
, 			{
				"name" : "Chorus x2.amxd.maxsnap",
				"bootpath" : "~/Max 7/Snapshots",
				"type" : "mx@s",
				"implicit" : 1
			}
, 			{
				"name" : "Chorus x2.amxd",
				"type" : "JSON",
				"implicit" : 1
			}
, 			{
				"name" : "chorus.dcModulator~.maxpat",
				"type" : "JSON",
				"implicit" : 1
			}
 ],
		"autosave" : 0
	}

}
